<svg xmlns="http://www.w3.org/2000/svg" viewBox="0 0 447.54 79.99"><path d="M38.65,55.06,51.12,67,40.71,77.45a8.62,8.62,0,0,1-12.21,0l-26-26A8.64,8.64,0,0,1,14.75,39.23L34.61,59.11Zm3.24-3.24,11-11.06L65.15,53,55,63.17Z" style="fill-rule:evenodd"/><path d="M91.87,62.94l-13-11.43,30.6-30.62a8.64,8.64,0,0,1,12.22,12.23Zm-4.05,4L77.38,77.45a8.63,8.63,0,0,1-12.22,0L20.86,33.11A8.64,8.64,0,1,1,33.08,20.88L71.27,59.11l4.29-4.3Z" style="fill-rule:evenodd"/><path d="M73.1,48.71,85.26,36.42l22.67,22.69,19.85-19.88A8.65,8.65,0,0,1,140,51.47l-26,26a8.62,8.62,0,0,1-12.21,0Zm-5-5.05L39.19,14.76A8.64,8.64,0,0,1,51.41,2.53l28.9,28.93Z" style="fill-rule:evenodd"/><path d="M103.34,2.54a8.63,8.63,0,0,0-12.22,0L52.94,40.76,65.15,53l38.19-38.22a8.66,8.66,0,0,0,0-12.23" style="fill-rule:evenodd"/><path d="M187.26,8.51H176.63V71h38.93V61.55h-28.3Zm51.3,18.79c6.45,0,10.79,2.63,13.17,5.86l.51-5h9.18V71h-9.18l-.51-5c-2.38,3.23-6.72,5.87-13.17,5.87C226.91,71.84,219,62.4,219,49.57S226.91,27.3,238.56,27.3Zm2.2,9c-6.63,0-11.39,5.18-11.39,13.26s4.76,13.26,11.39,13.26c5.1,0,8.17-2.72,10.46-6.38V42.68C248.93,39,245.86,36.31,240.76,36.31Zm46.38-22.53H276.93V28.15h-8.07v8.67h8.07v19c0,10.37,6.21,16,16,16a17.39,17.39,0,0,0,9.51-2.55l-2.72-8a11.23,11.23,0,0,1-5.86,1.36c-4,0-6.71-2.55-6.71-6.89v-19h12.92V28.15H287.14Zm35.15,0h-10.2V28.15H304v8.67h8.08v19c0,10.37,6.2,16,16,16a17.46,17.46,0,0,0,9.52-2.55l-2.72-8A11.3,11.3,0,0,1,329,62.66c-4,0-6.71-2.55-6.71-6.89v-19h12.92V28.15H322.29Zm32.34,14.37h-10.2V71h10.2Zm-5.1-20a6.12,6.12,0,0,0-6.29,6.29,6.33,6.33,0,0,0,12.66,0A6.14,6.14,0,0,0,349.53,8.17ZM385.45,27.3c-13.18,0-21.94,9.35-21.94,22.27s8.84,22.27,22,22.27A19.8,19.8,0,0,0,403,62.4l-7.31-5.69c-2,3.4-5.36,6.2-10,6.2-7.57,0-11.74-5.86-11.74-13.34s4-13.35,11.65-13.35c4.76,0,7.9,2.72,9.86,6.12l7.4-5.61A19.54,19.54,0,0,0,385.45,27.3Zm42.45,0c13.18,0,19.64,9.86,19.64,21.84v3.57H417.28c.26,6.8,4.34,10.54,11.48,10.54,5,0,8.66-2.21,10.62-4.93l7.05,5.78c-4.25,5.1-9.85,7.74-17.76,7.74-13.26,0-21.76-9.35-21.76-22.19S415.58,27.3,427.9,27.3Zm-.16,8.16c-6,0-10.12,4-10.46,9.94h20.23C437.26,39.54,433.86,35.46,427.74,35.46Z" style="fill-rule:evenodd"/></svg>